<svg width="32" height="32" viewBox="0 0 32 32" fill="none" xmlns="http://www.w3.org/2000/svg">
<path d="M14.5 0.866025C15.4282 0.330127 16.5718 0.330127 17.5 0.866025L28.3564 7.13397C29.2846 7.66987 29.8564 8.66025 29.8564 9.73205V22.2679C29.8564 23.3397 29.2846 24.3301 28.3564 24.866L17.5 31.134C16.5718 31.6699 15.4282 31.6699 14.5 31.134L3.64359 24.866C2.71539 24.3301 2.14359 23.3397 2.14359 22.268V9.73205C2.14359 8.66025 2.71539 7.66987 3.64359 7.13397L14.5 0.866025Z" fill="url(#paint0_linear_41_4)"/>
<path d="M17.2539 5.66797V9.02734C17.2539 9.54297 17.207 9.9362 17.1133 10.207C17.0221 10.4753 16.8424 10.6888 16.5742 10.8477C16.306 11.0039 15.9427 11.082 15.4844 11.082C15.0807 11.082 14.7161 11.0391 14.3906 10.9531V9.67969C14.6198 9.74479 14.8333 9.77734 15.0312 9.77734C15.2656 9.77734 15.4323 9.72396 15.5312 9.61719C15.6302 9.50781 15.6797 9.3112 15.6797 9.02734V5.66797H17.2539ZM18.1445 16.7266V18H14.1328V12.668H18.1445V13.8984H15.7383V14.6719H17.6836V15.8555H15.7383V16.7266H18.1445ZM16.0039 25.082C15.2539 25.082 14.6419 24.8333 14.168 24.3359C13.6966 23.8385 13.4609 23.1732 13.4609 22.3398C13.4609 21.543 13.6862 20.8854 14.1367 20.3672C14.5898 19.8464 15.2174 19.5859 16.0195 19.5859C16.7617 19.5859 17.3659 19.8307 17.832 20.3203C18.3008 20.8099 18.5352 21.4635 18.5352 22.2812C18.5352 23.1276 18.2995 23.806 17.8281 24.3164C17.3568 24.8268 16.7487 25.082 16.0039 25.082ZM15.9961 23.8711C16.2721 23.8711 16.4701 23.7513 16.5898 23.5117C16.7122 23.2695 16.7734 22.8281 16.7734 22.1875C16.7734 21.2604 16.5247 20.7969 16.0273 20.7969C15.4909 20.7969 15.2227 21.3255 15.2227 22.3828C15.2227 23.375 15.4805 23.8711 15.9961 23.8711Z" fill="white"/>
<defs>
<linearGradient id="paint0_linear_41_4" x1="16" y1="0" x2="16" y2="32" gradientUnits="userSpaceOnUse">
<stop stop-color="#4595F7"/>
<stop offset="1" stop-color="#5CC7FF"/>
</linearGradient>
</defs>
</svg>
