<svg width="19" height="16" viewBox="0 0 19 16" fill="none" xmlns="http://www.w3.org/2000/svg">
<path d="M18.6262 5.05964C18.7708 4.93595 18.9859 5.05166 18.9859 5.24719V13.4073C18.9859 14.4647 18.1887 15.3226 17.206 15.3226H1.77993C0.79726 15.3226 0 14.4647 0 13.4073V5.25118C0 5.05166 0.211367 4.93994 0.359694 5.06363C1.19033 5.75794 2.29166 6.63978 6.07401 9.59656C6.85644 10.2111 8.17655 11.5039 9.49296 11.4959C10.8168 11.5079 12.1629 10.1871 12.9156 9.59656C16.698 6.63978 17.7956 5.75395 18.6262 5.05964ZM9.49296 10.2151C10.3533 10.231 11.5918 9.0499 12.2148 8.56309C17.1355 4.72047 17.5101 4.38529 18.6448 3.42763C18.8598 3.24807 18.9859 2.96875 18.9859 2.67347V1.91532C18.9859 0.857905 18.1887 0 17.206 0H1.77993C0.79726 0 0 0.857905 0 1.91532V2.67347C0 2.96875 0.126078 3.24408 0.341153 3.42763C1.47586 4.3813 1.85039 4.72047 6.77115 8.56309C7.39412 9.0499 8.63266 10.231 9.49296 10.2151Z" fill="white"/>
</svg>
