<svg width="19" height="16" viewBox="0 0 19 16" fill="none" xmlns="http://www.w3.org/2000/svg">
<path d="M0 1.33333C0 0.597083 0.607746 0 1.35714 0H17.6429C18.3935 0 19 0.597083 19 1.33333C19 2.07083 18.3935 2.66667 17.6429 2.66667H1.35714C0.607746 2.66667 0 2.07083 0 1.33333ZM0 8C0 7.2625 0.607746 6.66667 1.35714 6.66667H17.6429C18.3935 6.66667 19 7.2625 19 8C19 8.7375 18.3935 9.33333 17.6429 9.33333H1.35714C0.607746 9.33333 0 8.7375 0 8ZM17.6429 16H1.35714C0.607746 16 0 15.4042 0 14.6667C0 13.9292 0.607746 13.3333 1.35714 13.3333H17.6429C18.3935 13.3333 19 13.9292 19 14.6667C19 15.4042 18.3935 16 17.6429 16Z" fill="white"/>
</svg>
