<svg width="19" height="16" viewBox="0 0 19 16" fill="none" xmlns="http://www.w3.org/2000/svg">
<path d="M18.2962 0.769072L14.4398 0.0190875C14.0208 -0.0621608 13.5906 0.12221 13.42 0.453453L11.6401 3.95338C11.4844 4.25962 11.5882 4.61899 11.896 4.82836L14.1431 6.37833C12.8082 8.77515 10.4758 10.7689 7.57235 11.9157L5.73313 10.022C5.48098 9.76263 5.05825 9.67513 4.69486 9.80638L0.541771 11.3063C0.145003 11.4532 -0.073776 11.8157 0.0226349 12.1688L0.912582 15.4188C1.00528 15.7563 1.36126 16 1.78028 16C11.2768 16 18.9859 9.51576 18.9859 1.50031C18.9859 1.15031 18.7004 0.847195 18.2962 0.769072Z" fill="white"/>
</svg>
